<svg width="92" height="17" viewBox="0 0 92 17" fill="none" xmlns="http://www.w3.org/2000/svg">
<mask id="mask0_7_221" style="mask-type:alpha" maskUnits="userSpaceOnUse" x="0" y="0" width="21" height="17">
<g clip-path="url(#clip0_7_221)">
<path d="M5.67664 5.74351V14.2355C5.95097 14.197 6.23234 14.1533 6.52074 14.1044V5.20325C6.21827 5.38508 5.9369 5.56517 5.67664 5.74351Z" fill="url(#paint0_linear_7_221)"/>
<path d="M14.5925 1.08051C14.5854 1.06653 14.5802 1.05254 14.5766 1.03855C14.5661 1.02107 14.5573 1.00184 14.5503 0.980854C14.5432 0.96337 14.5344 0.945886 14.5239 0.928402C14.5169 0.917912 14.5116 0.905673 14.5081 0.891686C14.494 0.870705 14.4817 0.851473 14.4711 0.833989C14.4676 0.830492 14.4659 0.826995 14.4659 0.823498C14.2074 0.409126 13.7484 0.13113 13.2261 0.13113H7.13797C6.33607 0.13113 5.68188 0.786781 5.68188 1.58405V4.21715C5.94567 4.06504 6.23055 3.90768 6.52599 3.76082V1.58405C6.52599 1.24836 6.80033 0.970364 7.13797 0.970364H13.2261C13.2683 0.973861 13.3123 0.979106 13.358 0.986099C13.3826 0.993093 13.4072 1.00009 13.4318 1.00708C13.4389 1.01058 13.4459 1.01407 13.4529 1.01757C13.4811 1.02806 13.5092 1.04205 13.5373 1.05953C13.5409 1.05953 13.5444 1.06128 13.5479 1.06478C13.569 1.07876 13.5901 1.0945 13.6112 1.11198C13.6218 1.11898 13.6305 1.12597 13.6376 1.13297C13.6517 1.14695 13.6657 1.16094 13.6798 1.17493C13.6903 1.18542 13.6991 1.19591 13.7062 1.2064C13.7202 1.22388 13.7325 1.24137 13.7431 1.25885C13.7466 1.26584 13.7519 1.27284 13.7589 1.27983C13.8117 1.369 13.8381 1.4739 13.8381 1.58405V1.74141H14.6822V1.58405C14.6822 1.40572 14.6505 1.23787 14.5925 1.08051Z" fill="url(#paint1_linear_7_221)"/>
<path d="M14.6822 10.7842V2.29216C14.4114 2.32712 14.1301 2.37083 13.8381 2.42329V11.3244C14.1406 11.1426 14.422 10.9625 14.6822 10.7842Z" fill="url(#paint2_linear_7_221)"/>
<path d="M0.0580696 8.75426C0.30075 9.43613 1.4614 9.72462 3.16543 9.6407C2.26857 9.54628 1.6777 9.27878 1.51415 8.82245C1.02352 7.45344 4.61097 4.93574 9.52788 3.19958C13.358 1.84631 16.861 1.369 18.4543 1.87254C17.3939 0.818253 13.147 1.21689 8.43582 2.87962C3.29733 4.69446 -0.45367 7.32231 0.0580696 8.75426Z" fill="url(#paint3_linear_7_221)"/>
<path style="mix-blend-mode:screen" d="M3.11265 9.64594C3.13024 9.64594 3.14783 9.64419 3.16541 9.6407C2.26855 9.54628 1.67767 9.27878 1.51413 8.82244C1.02349 7.45344 4.61094 4.93574 9.52786 3.19958C12.5983 2.11382 15.463 1.59454 17.2989 1.68896C17.626 1.67497 17.9302 1.67497 18.2116 1.68896C17.837 1.46341 17.262 1.33753 16.5392 1.30081C14.6505 1.37949 12.0813 1.91975 9.35904 2.87962C4.22054 4.69446 0.469548 7.32231 0.981287 8.75425C1.17649 9.29451 1.95201 9.58824 3.11265 9.64594Z" fill="url(#paint4_linear_7_221)"/>
<path d="M2.71702 8.47626C2.90166 8.99029 3.68774 9.2473 4.85893 9.2578C4.26806 9.13716 3.87239 8.90637 3.75105 8.56543C3.29734 7.29609 6.61045 4.97246 11.1475 3.37267C13.3633 2.59113 15.4577 2.12431 17.0774 2.00367C15.4155 1.90926 12.7988 2.38133 9.99215 3.37267C5.52894 4.94623 2.27386 7.23314 2.71702 8.47626Z" fill="url(#paint5_linear_7_221)"/>
<path style="mix-blend-mode:screen" d="M10.6357 3.40414C6.1725 4.98295 2.91214 7.26462 3.36057 8.50773C3.50302 8.91686 4.03058 9.16338 4.83248 9.25255C4.25216 9.13191 3.87231 8.90112 3.75097 8.56543C3.29726 7.29609 6.61038 4.97246 11.1474 3.37267C13.1522 2.66457 15.062 2.21872 16.6025 2.04563C14.9934 2.15578 12.8779 2.61211 10.6357 3.40414Z" fill="url(#paint6_linear_7_221)"/>
<path d="M11.1633 1.51587C11.1633 1.64175 11.0578 1.74141 10.9312 1.74141C10.8046 1.74141 10.7043 1.64175 10.7043 1.51587C10.7043 1.38998 10.8046 1.29032 10.9312 1.29032C11.0578 1.29032 11.1633 1.38998 11.1633 1.51587Z" fill="url(#paint7_linear_7_221)"/>
<path d="M9.43291 1.74141H10.2665C10.3931 1.74141 10.4933 1.64175 10.4933 1.51587C10.4933 1.38998 10.3931 1.29032 10.2665 1.29032H9.43291C9.30629 1.29032 9.20605 1.38998 9.20605 1.51587C9.20605 1.64175 9.30629 1.74141 9.43291 1.74141Z" fill="url(#paint8_linear_7_221)"/>
<path d="M5.7716 15.4471C5.77863 15.4611 5.78391 15.4751 5.78742 15.4891C5.79446 15.5066 5.80325 15.5241 5.8138 15.5416C5.82084 15.5625 5.82963 15.5818 5.84018 15.5993C5.8437 15.6097 5.84897 15.622 5.85601 15.636C5.86656 15.657 5.87887 15.6762 5.89294 15.6937C5.89294 15.6972 5.8947 15.7007 5.89821 15.7042C6.15672 16.1185 6.6157 16.3913 7.13799 16.3913H13.2208C14.028 16.3913 14.6822 15.7409 14.6822 14.9436V12.3105C14.4184 12.4626 14.1335 12.6147 13.8381 12.7668V14.9436C13.8381 15.2793 13.5637 15.552 13.2208 15.552H7.13799C7.09227 15.552 7.04831 15.5486 7.0061 15.5416C6.98148 15.5346 6.95686 15.5276 6.93224 15.5206C6.92521 15.5171 6.91817 15.5136 6.91114 15.5101C6.87949 15.4996 6.85135 15.4856 6.82673 15.4681C6.82321 15.4646 6.8197 15.4629 6.81618 15.4629C6.79156 15.4489 6.7687 15.4332 6.74759 15.4157C6.74056 15.4087 6.73177 15.3999 6.72122 15.3894C6.70715 15.379 6.69484 15.3667 6.68429 15.3527C6.67374 15.3422 6.66494 15.3317 6.65791 15.3213C6.64384 15.3038 6.63153 15.2863 6.62098 15.2688C6.61394 15.2618 6.60867 15.2548 6.60515 15.2478C6.5524 15.1587 6.52074 15.0538 6.52074 14.9436V14.7862H5.67664V14.9436C5.67664 15.1219 5.71356 15.2898 5.7716 15.4471Z" fill="url(#paint9_linear_7_221)"/>
<path d="M20.306 7.7734C20.0633 7.09152 18.8974 6.80304 17.1934 6.88172C18.0955 6.98137 18.6864 7.24888 18.8499 7.70521C19.3353 9.07421 15.7478 11.5919 10.8362 13.3281C7.00608 14.6813 3.50304 15.1587 1.90979 14.6551C2.9702 15.7094 7.21183 15.3108 11.9283 13.648C17.0668 11.8332 20.8178 9.2001 20.306 7.7734Z" fill="url(#paint10_linear_7_221)"/>
<path style="mix-blend-mode:screen" d="M17.2514 6.88172C17.2303 6.88172 17.211 6.88172 17.1934 6.88172C18.0955 6.98137 18.6864 7.24888 18.85 7.70521C19.3353 9.07421 15.7479 11.5919 10.8362 13.3281C7.76052 14.4138 4.90111 14.9331 3.06518 14.8387C2.73809 14.8527 2.4321 14.8527 2.14722 14.8387C2.52706 15.0642 3.09684 15.1901 3.82488 15.2268C5.71356 15.1482 8.27754 14.6079 11.0051 13.648C16.1383 11.8332 19.8893 9.2001 19.3775 7.7734C19.1876 7.23314 18.4121 6.93941 17.2514 6.88172Z" fill="url(#paint11_linear_7_221)"/>
<path d="M17.6471 8.0514C17.4625 7.53737 16.6764 7.28035 15.4999 7.26986C16.0961 7.3905 16.4918 7.61605 16.6131 7.96223C17.0668 9.22633 13.7537 11.55 9.21134 13.155C7.00084 13.9365 4.90112 14.3981 3.28149 14.524C4.9486 14.6184 7.56006 14.1463 10.3667 13.155C14.8299 11.5814 18.0903 9.29451 17.6471 8.0514Z" fill="url(#paint12_linear_7_221)"/>
<path style="mix-blend-mode:screen" d="M9.72827 13.1235C14.1915 11.5447 17.4466 9.26304 17.0034 8.01468C16.861 7.6108 16.3281 7.36428 15.5315 7.27511C16.1118 7.39575 16.4917 7.62654 16.613 7.96223C17.0667 9.22633 13.7536 11.55 9.21126 13.155C7.20651 13.8631 5.30199 14.3089 3.75623 14.4768C5.37058 14.3719 7.48612 13.9155 9.72827 13.1235Z" fill="url(#paint13_linear_7_221)"/>
</g>
</mask>
<g mask="url(#mask0_7_221)">
<rect width="20.5751" height="16.8342" fill="white"/>
</g>
<path d="M27.4265 5.70094C27.7434 5.64058 28.0904 5.59532 28.4676 5.56514C28.8524 5.52742 29.2334 5.50856 29.6106 5.50856C30.0029 5.50856 30.3952 5.54251 30.7875 5.61041C31.1873 5.67076 31.5457 5.79901 31.8625 5.99516C32.1794 6.18377 32.4359 6.45159 32.632 6.79862C32.8357 7.13811 32.9376 7.58322 32.9376 8.13394C32.9376 8.63186 32.8508 9.05433 32.6773 9.40137C32.5038 9.74086 32.2737 10.02 31.987 10.2388C31.7003 10.4576 31.3722 10.616 31.0025 10.7141C30.6404 10.8121 30.2632 10.8612 29.8709 10.8612C29.8331 10.8612 29.7728 10.8612 29.6898 10.8612C29.6068 10.8612 29.5201 10.8612 29.4295 10.8612C29.339 10.8536 29.2485 10.8461 29.1579 10.8385C29.0749 10.831 29.0146 10.8234 28.9769 10.8159V13.5431H27.4265V5.70094ZM29.7351 6.84388C29.5842 6.84388 29.4408 6.85143 29.305 6.86652C29.1692 6.87406 29.0599 6.88538 28.9769 6.90047V9.46926C29.007 9.47681 29.0523 9.48435 29.1127 9.4919C29.173 9.49944 29.2371 9.50699 29.305 9.51453C29.3729 9.51453 29.4371 9.51453 29.4974 9.51453C29.5653 9.51453 29.6144 9.51453 29.6445 9.51453C29.8482 9.51453 30.0481 9.49567 30.2443 9.45795C30.448 9.42023 30.629 9.35233 30.7875 9.25426C30.9459 9.14864 31.0704 9.0053 31.1609 8.82424C31.259 8.64318 31.308 8.40553 31.308 8.11131C31.308 7.86235 31.2628 7.65866 31.1722 7.50023C31.0817 7.33426 30.961 7.20223 30.8101 7.10416C30.6668 7.00608 30.5008 6.93819 30.3122 6.90047C30.1236 6.86274 29.9312 6.84388 29.7351 6.84388ZM35.3849 11.642C35.3849 11.906 35.4188 12.0984 35.4867 12.2191C35.5546 12.3398 35.664 12.4002 35.8149 12.4002C35.9054 12.4002 35.9922 12.3926 36.0752 12.3776C36.1657 12.3625 36.2751 12.3285 36.4034 12.2757L36.5618 13.43C36.4411 13.4903 36.2563 13.5507 36.0073 13.611C35.7583 13.6714 35.5018 13.7016 35.2378 13.7016C34.8078 13.7016 34.4796 13.6035 34.2533 13.4073C34.0269 13.2036 33.9138 12.8717 33.9138 12.4115V5.62172H35.3849V11.642ZM37.1609 8.21316C37.4627 8.07736 37.8211 7.97174 38.236 7.8963C38.6509 7.81331 39.0847 7.77182 39.5374 7.77182C39.9297 7.77182 40.2578 7.82086 40.5219 7.91893C40.7859 8.00946 40.9934 8.14149 41.1443 8.315C41.3027 8.48852 41.4121 8.69598 41.4724 8.9374C41.5403 9.17881 41.5743 9.4504 41.5743 9.75217C41.5743 10.0841 41.563 10.4198 41.5403 10.7593C41.5177 11.0913 41.5026 11.4194 41.4951 11.7438C41.4951 12.0682 41.5064 12.3851 41.529 12.6944C41.5517 12.9962 41.6082 13.2829 41.6988 13.5544H40.4992L40.2616 12.7736H40.205C40.0541 13.0075 39.8429 13.2112 39.5713 13.3847C39.3073 13.5507 38.964 13.6337 38.5415 13.6337C38.2775 13.6337 38.0398 13.5959 37.8286 13.5205C37.6174 13.4375 37.4363 13.3243 37.2854 13.181C37.1345 13.0301 37.0176 12.8566 36.9346 12.6605C36.8516 12.4568 36.8101 12.2304 36.8101 11.9815C36.8101 11.6344 36.8856 11.344 37.0365 11.1101C37.1949 10.8687 37.4174 10.6763 37.7041 10.533C37.9983 10.3821 38.3454 10.2803 38.7452 10.2275C39.1526 10.1671 39.6053 10.1482 40.1032 10.1709C40.156 9.7484 40.1258 9.44663 40.0126 9.26557C39.8995 9.07697 39.6467 8.98266 39.2545 8.98266C38.9602 8.98266 38.6471 9.01284 38.3152 9.07319C37.9908 9.13355 37.723 9.21276 37.5117 9.31084L37.1609 8.21316ZM39.0281 12.4228C39.3223 12.4228 39.5562 12.3587 39.7297 12.2304C39.9033 12.0946 40.0315 11.9513 40.1145 11.8004V11.0649C39.8806 11.0422 39.6543 11.0385 39.4355 11.0535C39.2243 11.0686 39.0357 11.1026 38.8697 11.1554C38.7037 11.2082 38.5717 11.2836 38.4736 11.3817C38.3756 11.4798 38.3265 11.6043 38.3265 11.7552C38.3265 11.9664 38.3869 12.1324 38.5076 12.2531C38.6358 12.3662 38.8093 12.4228 39.0281 12.4228ZM46.2716 13.5431V10.3293C46.2716 9.86911 46.2037 9.53716 46.0679 9.33347C45.9397 9.12978 45.7171 9.02793 45.4003 9.02793C45.1211 9.02793 44.8835 9.11092 44.6873 9.27689C44.4987 9.43532 44.3629 9.63524 44.2799 9.87665V13.5431H42.8088V7.88498H43.9744L44.1442 8.63186H44.1894C44.3629 8.39044 44.593 8.17921 44.8797 7.99815C45.1664 7.81709 45.5361 7.72656 45.9887 7.72656C46.2678 7.72656 46.5168 7.76428 46.7356 7.83972C46.9544 7.91516 47.1392 8.03964 47.2901 8.21316C47.441 8.38667 47.5541 8.62431 47.6296 8.92608C47.705 9.22031 47.7427 9.5862 47.7427 10.0238V13.5431H46.2716ZM53.5018 13.0565C53.2755 13.2376 52.9662 13.3922 52.5739 13.5205C52.1892 13.6412 51.778 13.7016 51.3404 13.7016C50.4276 13.7016 49.7599 13.4375 49.3374 12.9094C48.915 12.3738 48.7037 11.642 48.7037 10.7141C48.7037 9.71822 48.9414 8.97135 49.4167 8.47343C49.8919 7.97551 50.5596 7.72656 51.4196 7.72656C51.7063 7.72656 51.9855 7.76428 52.257 7.83972C52.5286 7.91516 52.7701 8.03964 52.9813 8.21316C53.1925 8.38667 53.3623 8.62054 53.4905 8.91477C53.6188 9.20899 53.6829 9.57488 53.6829 10.0124C53.6829 10.1709 53.6716 10.3406 53.649 10.5217C53.6339 10.7027 53.6075 10.8913 53.5697 11.0875H50.1749C50.1975 11.5628 50.3182 11.9211 50.537 12.1625C50.7633 12.404 51.1254 12.5247 51.6233 12.5247C51.9326 12.5247 52.208 12.4794 52.4494 12.3889C52.6984 12.2908 52.887 12.1927 53.0152 12.0946L53.5018 13.0565ZM51.397 8.90345C51.0123 8.90345 50.7256 9.02038 50.537 9.25426C50.3559 9.48058 50.2465 9.78612 50.2088 10.1709H52.3136C52.3438 9.76349 52.2797 9.4504 52.1213 9.23162C51.9704 9.01284 51.729 8.90345 51.397 8.90345ZM54.1334 7.88498H54.9143V6.82125L56.3854 6.40255V7.88498H57.766V9.12978H56.3854V11.3025C56.3854 11.6948 56.4231 11.9777 56.4985 12.1512C56.5815 12.3172 56.7324 12.4002 56.9512 12.4002C57.1021 12.4002 57.2303 12.3851 57.3359 12.3549C57.4491 12.3247 57.5736 12.2795 57.7094 12.2191L57.9697 13.3508C57.766 13.4488 57.5283 13.5318 57.2567 13.5997C56.9851 13.6676 56.7098 13.7016 56.4306 13.7016C55.9101 13.7016 55.5253 13.5695 55.2764 13.3055C55.035 13.0339 54.9143 12.5926 54.9143 11.9815V9.12978H54.1334V7.88498ZM61.5633 5.70094C61.8801 5.64058 62.2272 5.59532 62.6044 5.56514C62.9891 5.52742 63.3701 5.50856 63.7473 5.50856C64.1396 5.50856 64.5319 5.54251 64.9242 5.61041C65.3241 5.67076 65.6824 5.79901 65.9993 5.99516C66.3161 6.18377 66.5726 6.45159 66.7688 6.79862C66.9725 7.13811 67.0743 7.58322 67.0743 8.13394C67.0743 8.63186 66.9876 9.05433 66.8141 9.40137C66.6405 9.74086 66.4104 10.02 66.1238 10.2388C65.8371 10.4576 65.5089 10.616 65.1392 10.7141C64.7771 10.8121 64.3999 10.8612 64.0076 10.8612C63.9699 10.8612 63.9095 10.8612 63.8265 10.8612C63.7436 10.8612 63.6568 10.8612 63.5663 10.8612C63.4757 10.8536 63.3852 10.8461 63.2947 10.8385C63.2117 10.831 63.1513 10.8234 63.1136 10.8159V13.5431H61.5633V5.70094ZM63.8718 6.84388C63.7209 6.84388 63.5776 6.85143 63.4418 6.86652C63.306 6.87406 63.1966 6.88538 63.1136 6.90047V9.46926C63.1438 9.47681 63.1891 9.48435 63.2494 9.4919C63.3098 9.49944 63.3739 9.50699 63.4418 9.51453C63.5097 9.51453 63.5738 9.51453 63.6342 9.51453C63.7021 9.51453 63.7511 9.51453 63.7813 9.51453C63.985 9.51453 64.1849 9.49567 64.381 9.45795C64.5847 9.42023 64.7658 9.35233 64.9242 9.25426C65.0827 9.14864 65.2071 9.0053 65.2977 8.82424C65.3957 8.64318 65.4448 8.40553 65.4448 8.11131C65.4448 7.86235 65.3995 7.65866 65.309 7.50023C65.2185 7.33426 65.0977 7.20223 64.9469 7.10416C64.8035 7.00608 64.6375 6.93819 64.4489 6.90047C64.2603 6.86274 64.068 6.84388 63.8718 6.84388ZM71.4681 13.5431V10.3293C71.4681 9.86911 71.4039 9.53716 71.2757 9.33347C71.1474 9.12978 70.9136 9.02793 70.5741 9.02793C70.3251 9.02793 70.095 9.11469 69.8838 9.2882C69.6801 9.45418 69.5443 9.66919 69.4764 9.93323V13.5431H68.0053V5.62172H69.4764V8.5187H69.5216C69.7027 8.27728 69.9253 8.0849 70.1893 7.94156C70.4534 7.79823 70.7891 7.72656 71.1965 7.72656C71.4831 7.72656 71.7359 7.76428 71.9547 7.83972C72.1734 7.91516 72.3545 8.03964 72.4978 8.21316C72.6487 8.38667 72.7581 8.62431 72.826 8.92608C72.9014 9.22031 72.9392 9.5862 72.9392 10.0238V13.5431H71.4681ZM73.9002 10.7141C73.9002 9.75594 74.134 9.02038 74.6018 8.50738C75.0695 7.98683 75.7259 7.72656 76.5708 7.72656C77.0235 7.72656 77.4158 7.79823 77.7477 7.94156C78.0797 8.0849 78.355 8.2886 78.5738 8.55264C78.7926 8.80915 78.9548 9.12223 79.0604 9.4919C79.1736 9.86156 79.2301 10.2689 79.2301 10.7141C79.2301 11.6722 78.9963 12.4115 78.5285 12.9321C78.0683 13.4451 77.4158 13.7016 76.5708 13.7016C76.1182 13.7016 75.7259 13.6299 75.3939 13.4865C75.062 13.3432 74.7828 13.1433 74.5565 12.8868C74.3377 12.6227 74.1718 12.3059 74.0586 11.9362C73.953 11.5666 73.9002 11.1592 73.9002 10.7141ZM75.4166 10.7141C75.4166 10.963 75.4392 11.1931 75.4845 11.4044C75.5297 11.6156 75.5976 11.8004 75.6881 11.9588C75.7787 12.1173 75.8956 12.2418 76.039 12.3323C76.1898 12.4153 76.3671 12.4568 76.5708 12.4568C76.9556 12.4568 77.2423 12.3172 77.4309 12.0381C77.6195 11.7589 77.7138 11.3176 77.7138 10.7141C77.7138 10.1935 77.627 9.7748 77.4535 9.45795C77.28 9.13355 76.9857 8.97135 76.5708 8.97135C76.2087 8.97135 75.9258 9.10714 75.7221 9.37873C75.5184 9.65033 75.4166 10.0954 75.4166 10.7141ZM83.7126 13.5431V10.3293C83.7126 9.86911 83.6447 9.53716 83.5089 9.33347C83.3807 9.12978 83.1581 9.02793 82.8413 9.02793C82.5621 9.02793 82.3245 9.11092 82.1284 9.27689C81.9397 9.43532 81.804 9.63524 81.721 9.87665V13.5431H80.2498V7.88498H81.4154L81.5852 8.63186H81.6304C81.804 8.39044 82.0341 8.17921 82.3207 7.99815C82.6074 7.81709 82.9771 7.72656 83.4297 7.72656C83.7089 7.72656 83.9578 7.76428 84.1766 7.83972C84.3954 7.91516 84.5802 8.03964 84.7311 8.21316C84.882 8.38667 84.9951 8.62431 85.0706 8.92608C85.146 9.22031 85.1838 9.5862 85.1838 10.0238V13.5431H83.7126ZM90.9429 13.0565C90.7165 13.2376 90.4072 13.3922 90.0149 13.5205C89.6302 13.6412 89.219 13.7016 88.7815 13.7016C87.8686 13.7016 87.2009 13.4375 86.7785 12.9094C86.356 12.3738 86.1448 11.642 86.1448 10.7141C86.1448 9.71822 86.3824 8.97135 86.8577 8.47343C87.333 7.97551 88.0006 7.72656 88.8607 7.72656C89.1473 7.72656 89.4265 7.76428 89.6981 7.83972C89.9697 7.91516 90.2111 8.03964 90.4223 8.21316C90.6336 8.38667 90.8033 8.62054 90.9315 8.91477C91.0598 9.20899 91.1239 9.57488 91.1239 10.0124C91.1239 10.1709 91.1126 10.3406 91.09 10.5217C91.0749 10.7027 91.0485 10.8913 91.0108 11.0875H87.6159C87.6385 11.5628 87.7592 11.9211 87.978 12.1625C88.2043 12.404 88.5664 12.5247 89.0644 12.5247C89.3737 12.5247 89.649 12.4794 89.8904 12.3889C90.1394 12.2908 90.328 12.1927 90.4563 12.0946L90.9429 13.0565ZM88.838 8.90345C88.4533 8.90345 88.1666 9.02038 87.978 9.25426C87.7969 9.48058 87.6875 9.78612 87.6498 10.1709H89.7547C89.7848 9.76349 89.7207 9.4504 89.5623 9.23162C89.4114 9.01284 89.17 8.90345 88.838 8.90345Z" fill="white"/>
<defs>
<linearGradient id="paint0_linear_7_221" x1="54.9935" y1="5.20325" x2="54.9935" y2="14.2355" gradientUnits="userSpaceOnUse">
<stop stop-color="#05EAFF"/>
<stop offset="1" stop-color="#001AC3"/>
</linearGradient>
<linearGradient id="paint1_linear_7_221" x1="14.6822" y1="4.21715" x2="5.68188" y2="4.21715" gradientUnits="userSpaceOnUse">
<stop stop-color="#F12711"/>
<stop offset="1" stop-color="#F5AF19"/>
</linearGradient>
<linearGradient id="paint2_linear_7_221" x1="-34.6294" y1="11.3244" x2="-34.6294" y2="2.29216" gradientUnits="userSpaceOnUse">
<stop stop-color="#05EAFF"/>
<stop offset="1" stop-color="#001AC3"/>
</linearGradient>
<linearGradient id="paint3_linear_7_221" x1="20.2005" y1="4.64201" x2="3.08605" y2="14.2358" gradientUnits="userSpaceOnUse">
<stop stop-color="#F12711"/>
<stop offset="1" stop-color="#F5AF19"/>
</linearGradient>
<linearGradient id="paint4_linear_7_221" x1="20.1214" y1="4.9305" x2="3.88026" y2="14.0375" gradientUnits="userSpaceOnUse">
<stop/>
<stop offset="1" stop-color="#F5AF19"/>
</linearGradient>
<linearGradient id="paint5_linear_7_221" x1="16.7186" y1="5.07736" x2="5.7089" y2="14.4242" gradientUnits="userSpaceOnUse">
<stop stop-color="#001AC3"/>
<stop offset="1" stop-color="#05EAFF"/>
</linearGradient>
<linearGradient id="paint6_linear_7_221" x1="16.5919" y1="5.34487" x2="6.20697" y2="14.1584" gradientUnits="userSpaceOnUse">
<stop/>
<stop offset="1" stop-color="#05EAFF"/>
</linearGradient>
<linearGradient id="paint7_linear_7_221" x1="9.07944" y1="1.29032" x2="11.2425" y2="1.29032" gradientUnits="userSpaceOnUse">
<stop stop-color="#F5AF19"/>
<stop offset="1" stop-color="#F12711"/>
</linearGradient>
<linearGradient id="paint8_linear_7_221" x1="9.07944" y1="1.29032" x2="11.2425" y2="1.29032" gradientUnits="userSpaceOnUse">
<stop stop-color="#F5AF19"/>
<stop offset="1" stop-color="#F12711"/>
</linearGradient>
<linearGradient id="paint9_linear_7_221" x1="5.67664" y1="12.3105" x2="14.6822" y2="12.3105" gradientUnits="userSpaceOnUse">
<stop stop-color="#F12711"/>
<stop offset="1" stop-color="#F5AF19"/>
</linearGradient>
<linearGradient id="paint10_linear_7_221" x1="0.158271" y1="11.8856" x2="17.2728" y2="2.29182" gradientUnits="userSpaceOnUse">
<stop stop-color="#F12711"/>
<stop offset="1" stop-color="#F5AF19"/>
</linearGradient>
<linearGradient id="paint11_linear_7_221" x1="0.237427" y1="11.5972" x2="16.4838" y2="2.49017" gradientUnits="userSpaceOnUse">
<stop/>
<stop offset="1" stop-color="#F5AF19"/>
</linearGradient>
<linearGradient id="paint12_linear_7_221" x1="3.64551" y1="11.4503" x2="14.6552" y2="2.10344" gradientUnits="userSpaceOnUse">
<stop stop-color="#001AC3"/>
<stop offset="1" stop-color="#05EAFF"/>
</linearGradient>
<linearGradient id="paint13_linear_7_221" x1="3.76678" y1="11.1828" x2="14.1517" y2="2.36402" gradientUnits="userSpaceOnUse">
<stop/>
<stop offset="1" stop-color="#05EAFF"/>
</linearGradient>
<clipPath id="clip0_7_221">
<rect width="20.5751" height="16.5224" fill="white"/>
</clipPath>
</defs>
</svg>
